<?xml version="1.0" encoding="UTF-8" standalone="no"?><!DOCTYPE svg PUBLIC "-//W3C//DTD SVG 1.1//EN" "http://www.w3.org/Graphics/SVG/1.1/DTD/svg11.dtd"><svg width="100%" height="100%" viewBox="0 0 675 482" version="1.1" xmlns="http://www.w3.org/2000/svg" xmlns:xlink="http://www.w3.org/1999/xlink" xml:space="preserve" xmlns:serif="http://www.serif.com/" style="fill-rule:evenodd;clip-rule:evenodd;stroke-miterlimit:10;"><g><path d="M39.328,56.638c2.113,-3.667 0.87,-8.328 -2.796,-10.379c-3.667,-2.113 -8.328,-0.87 -10.379,2.797c-0.497,0.87 -0.808,1.74 -0.932,2.672c-0.311,-0.994 -0.87,-1.926 -1.554,-2.734c-2.797,-3.107 -7.644,-3.356 -10.751,-0.559c-3.108,2.796 -3.356,7.644 -0.56,10.751c0.684,0.746 1.43,1.305 2.237,1.678c-1.056,0 -2.113,0.186 -3.107,0.684c-3.853,1.74 -5.531,6.214 -3.853,10.068c1.74,3.853 6.215,5.531 10.068,3.853c0.87,-0.373 1.678,-0.933 2.299,-1.616c-0.31,0.994 -0.435,2.051 -0.31,3.169c0.435,4.164 4.226,7.209 8.389,6.774c4.164,-0.435 7.21,-4.226 6.775,-8.389c-0.125,-0.995 -0.373,-1.865 -0.808,-2.673c0.808,0.622 1.802,1.057 2.921,1.305c4.101,0.87 8.141,-1.74 9.011,-5.904c0.87,-4.101 -1.74,-8.141 -5.904,-9.011c-0.932,-0.187 -1.927,-0.187 -2.797,-0.062c0.808,-0.684 1.492,-1.492 2.051,-2.424Z" style="fill:#e26144;fill-rule:nonzero;"/><path d="M81.464,116.051l-57.176,0l9.882,38.78l37.413,0l9.881,-38.78Z" style="fill:#dcdddf;fill-rule:nonzero;"/><path d="M63.939,116.051l-9.882,38.78l17.526,0l9.881,-38.78l-17.525,0Z" style="fill:#c2c2c4;fill-rule:nonzero;"/><rect x="48.402" y="177.701" width="19.701" height="25.418" style="fill:#e26144;"/><rect x="191.403" y="177.701" width="19.701" height="25.418" style="fill:#e26144;"/><path d="M235.776,155.204l-212.047,0c-6.152,0 -11.186,5.034 -11.186,11.186l0,0.063c0,6.152 5.034,11.186 11.186,11.186l212.047,0c6.153,0 11.187,-5.034 11.187,-11.186c0.062,-6.215 -4.972,-11.249 -11.187,-11.249Z" style="fill:#f8a200;fill-rule:nonzero;"/><path d="M235.776,155.204l-24.983,0c6.153,0 11.187,5.034 11.187,11.186l0,0.063c0,6.152 -5.034,11.186 -11.187,11.186l24.983,0c6.153,0 11.187,-5.034 11.187,-11.186c0.062,-6.215 -4.972,-11.249 -11.187,-11.249Z" style="fill:#f77b00;fill-rule:nonzero;"/><path d="M221.296,270.052l0,-34.367c0,-11.062 -9.074,-20.136 -20.136,-20.136l-66.187,0c-11.062,0 -20.136,9.074 -20.136,20.136l0,34.367c0,11.063 9.074,20.136 20.136,20.136l45.306,0l38.096,12.865l-9.322,-14.543c7.209,-3.107 12.243,-10.254 12.243,-18.458Z" style="fill:#afe1f2;fill-rule:nonzero;"/><path d="M221.296,270.052l0,-34.367c0,-11.062 -9.074,-20.136 -20.136,-20.136l-10.068,0c11.063,0 20.136,9.074 20.136,20.136l0,34.367c0,8.266 -5.034,15.351 -12.181,18.458l6.526,10.192l12.864,4.351l-9.322,-14.543c7.147,-3.107 12.181,-10.254 12.181,-18.458Z" style="fill:#74ccf4;fill-rule:nonzero;"/><path d="M291.15,185.905c0,0 -18.085,-99.001 46.859,-86.385c0.559,0.124 23.243,-12.989 47.729,-1.678c33.063,15.226 38.159,71.594 21.068,88.684c-17.153,17.029 -115.656,-0.621 -115.656,-0.621Z" style="fill:#cb553e;fill-rule:nonzero;"/><path d="M385.676,97.78c-19.887,-9.136 -38.531,-2.3 -45.181,0.621c3.791,0.684 7.706,1.865 11.746,3.729c33.062,15.226 38.158,71.594 21.068,88.684c-1.181,1.181 -2.797,2.238 -4.786,3.108c17.402,0.124 32.441,-1.678 38.221,-7.458c17.153,-17.09 11.994,-73.458 -21.068,-88.684Z" style="fill:#ba3422;fill-rule:nonzero;"/><path d="M291.15,185.905c0,0 -18.085,-99.001 46.859,-86.385c0.559,0.124 23.243,-12.989 47.729,-1.678c33.063,15.226 38.159,71.594 21.068,88.684c-17.153,17.029 -115.656,-0.621 -115.656,-0.621Z" style="fill:none;stroke:#444241;stroke-width:6.21px;"/><g><path d="M587.096,391.675l-450.072,0l0,24.424c0,11.249 9.074,20.322 20.322,20.322l409.428,0c11.248,0 20.322,-9.073 20.322,-20.322l0,-24.424Z" style="fill:#e26144;fill-rule:nonzero;"/><path d="M151.007,416.099l0,-24.424l-13.921,0l0,24.424c0,11.249 9.074,20.322 20.322,20.322l13.921,0c-11.248,0 -20.322,-9.073 -20.322,-20.322Z" style="fill:#ef8925;fill-rule:nonzero;"/><path d="M515.44,391.675l0,24.424c0,11.249 -9.074,20.322 -20.322,20.322l71.656,0c11.248,0 20.322,-9.073 20.322,-20.322l0,-24.424l-71.656,0Z" style="fill:#cb553e;fill-rule:nonzero;"/><path d="M587.096,391.675l-450.072,0l0,24.424c0,11.249 9.074,20.322 20.322,20.322l409.428,0c11.248,0 20.322,-9.073 20.322,-20.322l0,-24.424Z" style="fill:none;stroke:#444241;stroke-width:6.21px;"/><g><path d="M594.864,378.5l-475.241,0c-6.961,0 -12.678,5.717 -12.678,12.678l0,0.373c0,6.96 5.717,12.678 12.678,12.678l475.241,0c6.961,0 12.678,-5.718 12.678,-12.678l0,-0.373c0,-7.023 -5.717,-12.678 -12.678,-12.678Z" style="fill:#f8a200;fill-rule:nonzero;"/><path d="M116.577,391.489l0,-0.373c0,-6.961 5.718,-12.678 12.679,-12.678l-9.633,0c-6.961,0 -12.678,5.717 -12.678,12.678l0,0.373c0,6.96 5.717,12.678 12.678,12.678l9.633,0c-6.961,0 -12.679,-5.718 -12.679,-12.678Z" style="fill:#fff;fill-opacity:0.46;fill-rule:nonzero;"/><path d="M594.864,378.5l-87.006,0c6.96,0 12.678,5.717 12.678,12.678l0,0.373c0,6.96 -5.718,12.678 -12.678,12.678l87.006,0c6.961,0 12.678,-5.718 12.678,-12.678l0,-0.373c0,-7.023 -5.717,-12.678 -12.678,-12.678Z" style="fill:#f77b00;fill-rule:nonzero;"/><path d="M594.864,378.5l-475.241,0c-6.961,0 -12.678,5.717 -12.678,12.678l0,0.373c0,6.96 5.717,12.678 12.678,12.678l475.241,0c6.961,0 12.678,-5.718 12.678,-12.678l0,-0.373c0,-7.023 -5.717,-12.678 -12.678,-12.678Z" style="fill:none;stroke:#444241;stroke-width:6.21px;"/></g></g><g><path id="XMLID_4_" d="M480.14,376.884l-14.107,-78.679c-10.317,-11.373 -51.21,-26.102 -87.38,-35.921l-51.396,0.186c-35.859,9.82 -78.803,24.424 -89.057,35.735l-14.107,78.679l256.047,0Z" style="fill:#74ccf4;fill-rule:nonzero;"/><circle id="XMLID_2_" cx="300.72" cy="183.543" r="11.497" style="fill:#e2aa6d;"/><circle id="XMLID_682_" cx="300.72" cy="183.543" r="11.497" style="fill:none;stroke:#444241;stroke-width:6.21px;"/><path d="M401.586,163.967l-16.469,-4.04c-10.814,-2.672 -21.131,-7.023 -30.515,-12.864l-9.508,-5.967c-21.006,20.012 -43.255,22.871 -43.255,22.871l-0.062,18.147c0,27.593 22.373,66.622 49.966,66.622c27.594,0 49.967,-39.029 49.967,-66.622l-0.124,-18.147Z" style="fill:#fee3be;fill-rule:nonzero;"/><circle id="XMLID_3_" cx="403.512" cy="184.413" r="11.497" style="fill:#e2aa6d;"/><circle id="XMLID_683_" cx="403.512" cy="184.413" r="11.497" style="fill:none;stroke:#444241;stroke-width:6.21px;"/><path id="XMLID_690_" d="M480.14,376.884l-14.107,-78.679c-10.317,-11.373 -51.21,-26.102 -87.38,-35.921l-51.396,0.186c-35.859,9.82 -78.803,24.424 -89.057,35.735l-14.107,78.679l256.047,0Z" style="fill:none;stroke:#444241;stroke-width:6.21px;"/><path id="XMLID_1_" d="M379.834,234.566l0,29.458c0,0 -5.034,19.079 -28.588,23.803c-24.61,-6.402 -28.401,-23.803 -28.401,-23.803l0,-30.079c8.141,8.825 18.085,14.729 28.774,14.729c10.503,0 20.198,-5.594 28.215,-14.108Z" style="fill:#fee3be;fill-rule:nonzero;"/><g><path d="M364.857,152.656c-3.543,-1.678 -6.961,-3.543 -10.317,-5.656l-9.508,-5.966c-0.684,0.622 -1.368,1.305 -2.051,1.865c6.898,4.101 14.231,7.395 21.876,9.757Z" style="fill:#e2aa6d;fill-rule:nonzero;"/><path d="M401.586,163.967l-13.921,-3.418l0,16.096c0,27.593 -22.373,66.622 -49.967,66.622c-1.491,0 -2.983,-0.124 -4.412,-0.373c5.655,3.667 11.87,5.78 18.333,5.78c27.594,0 49.967,-39.029 49.967,-66.622l0,-18.085Z" style="fill:#e2aa6d;fill-rule:nonzero;"/></g><path d="M379.834,234.815l0,8.825c-8.017,11.559 -17.712,19.203 -28.215,19.203c-10.751,0 -20.633,-8.017 -28.774,-20.073l0,-8.825c8.141,12.056 18.085,10.689 28.774,10.689c10.503,0 20.198,1.74 28.215,-9.819Z" style="fill:#e2aa6d;fill-rule:nonzero;"/><path d="M401.586,163.967l-16.469,-4.04c-10.814,-2.672 -21.131,-7.023 -30.515,-12.864l-9.508,-5.967c-21.006,20.012 -43.255,22.871 -43.255,22.871l-0.062,18.147c0,27.593 22.373,66.622 49.966,66.622c27.594,0 49.967,-39.029 49.967,-66.622l-0.124,-18.147Z" style="fill:none;stroke:#444241;stroke-width:6.21px;"/><path id="XMLID_685_" d="M379.834,234.566l0,29.458c0,0 -5.034,19.079 -28.588,23.803c-24.61,-6.402 -28.401,-23.803 -28.401,-23.803l0,-30.079c8.141,8.825 18.085,14.729 28.774,14.729c10.503,0 20.198,-5.594 28.215,-14.108Z" style="fill:none;stroke:#444241;stroke-width:6.21px;"/><g><g><path d="M336.455,178.447l-14.169,0c-4.91,0 -8.888,3.977 -8.888,8.887l0,8.141c0,4.91 3.978,8.888 8.888,8.888l14.169,0c4.91,0 8.887,-3.978 8.887,-8.888l0,-8.141c0.062,-4.91 -3.977,-8.887 -8.887,-8.887Z" style="fill:#fff;fill-rule:nonzero;"/><path d="M336.455,178.447l-14.169,0c-4.91,0 -8.888,3.977 -8.888,8.887l0,8.141c0,4.91 3.978,8.888 8.888,8.888l14.169,0c4.91,0 8.887,-3.978 8.887,-8.888l0,-8.141c0.062,-4.91 -3.977,-8.887 -8.887,-8.887Z" style="fill:none;stroke:#444241;stroke-width:6.21px;"/></g><g><path d="M381.512,178.447l-14.17,0c-4.909,0 -8.887,3.977 -8.887,8.887l0,8.141c0,4.91 3.978,8.888 8.887,8.888l14.17,0c4.91,0 8.887,-3.978 8.887,-8.888l0,-8.141c0.062,-4.91 -3.915,-8.887 -8.887,-8.887Z" style="fill:#fff;fill-rule:nonzero;"/><path d="M381.512,178.447l-14.17,0c-4.909,0 -8.887,3.977 -8.887,8.887l0,8.141c0,4.91 3.978,8.888 8.887,8.888l14.17,0c4.91,0 8.887,-3.978 8.887,-8.888l0,-8.141c0.062,-4.91 -3.915,-8.887 -8.887,-8.887Z" style="fill:none;stroke:#444241;stroke-width:6.21px;"/></g><path d="M344.907,188.888l13.113,0" style="fill:none;stroke:#444241;stroke-width:6.21px;"/></g></g><g><path d="M434.959,262.968l-158.476,0c-6.339,0 -11.435,5.158 -11.435,11.435l0,90.921c0,6.091 4.972,11.063 11.062,11.063l159.346,0c6.09,0 11.062,-4.972 11.062,-11.063l0,-90.859c-0.062,-6.339 -5.22,-11.497 -11.559,-11.497Z" style="fill:#dcdddf;fill-rule:nonzero;"/><path d="M275.489,365.387l0,-90.922c0,-6.339 5.158,-11.435 11.435,-11.435l-10.441,0c-6.339,0 -11.435,5.158 -11.435,11.435l0,90.922c0,6.09 4.972,11.062 11.062,11.062l10.441,0c-6.153,0 -11.062,-4.972 -11.062,-11.062Z" style="fill:#f0f1f2;fill-rule:nonzero;"/><path d="M434.959,262.968l-26.724,0c6.34,0 11.436,5.158 11.436,11.435l0,90.921c0,6.091 -4.972,11.063 -11.063,11.063l26.724,0c6.09,0 11.062,-4.972 11.062,-11.063l0,-90.859c0.062,-6.339 -5.096,-11.497 -11.435,-11.497Z" style="fill:#c2c2c4;fill-rule:nonzero;"/><path d="M434.959,262.968l-158.476,0c-6.339,0 -11.435,5.158 -11.435,11.435l0,90.921c0,6.091 4.972,11.063 11.062,11.063l159.346,0c6.09,0 11.062,-4.972 11.062,-11.063l0,-90.859c-0.062,-6.339 -5.22,-11.497 -11.559,-11.497Z" style="fill:none;stroke:#444241;stroke-width:6.21px;"/><path d="M369.89,303.55c-1.988,-1.367 -4.35,-2.237 -6.898,-2.237c-3.232,0 -6.215,1.305 -8.39,3.48l0,0.062l0,-0.062c-2.175,-2.175 -5.158,-3.48 -8.39,-3.48c-2.548,0 -4.909,0.807 -6.898,2.237c-4.102,2.921 -6.028,8.141 -5.096,13.237c1.056,5.718 5.158,19.266 20.384,21.068l0,-0.062l0,0.062c15.164,-1.802 19.328,-15.35 20.385,-21.068c0.932,-5.096 -0.995,-10.378 -5.097,-13.237Z" style="fill:#fff;fill-rule:nonzero;"/></g><path d="M343.043,224.56c2.548,0.871 6.152,1.43 10.192,1.43c3.605,0 6.898,-0.435 9.384,-1.181" style="fill:none;stroke:#444241;stroke-width:6.21px;stroke-linecap:round;stroke-linejoin:round;"/><g><circle cx="567.084" cy="122.701" r="62.21" style="fill:#f8a200;"/><path d="M535.703,91.322c17.317,-17.317 45.435,-17.317 62.752,0c17.317,17.318 17.317,45.436 0,62.753c-17.317,17.317 -45.435,17.317 -62.752,0c-17.317,-17.317 -17.317,-45.435 0,-62.753Z" style="fill:#fff;"/><path d="M567.084,78.327c-1.926,0 -3.791,0.125 -5.655,0.373c21.876,2.797 38.78,21.441 38.78,44.001c0,22.559 -16.904,41.266 -38.78,44c1.864,0.249 3.729,0.373 5.655,0.373c24.549,0 44.374,-19.887 44.374,-44.373c0,-24.486 -19.888,-44.374 -44.374,-44.374Z" style="fill:#dcdddf;fill-rule:nonzero;"/><circle cx="567.084" cy="122.701" r="62.21" style="fill:none;stroke:#444241;stroke-width:6.21px;"/><circle cx="567.084" cy="122.701" r="45.43" style="fill:none;stroke:#444241;stroke-width:6.21px;"/><circle cx="567.83" cy="123.695" r="7.458" style="fill:#f8a200;"/><circle cx="567.83" cy="123.695" r="7.458" style="fill:none;stroke:#444241;stroke-width:6.21px;"/><path d="M567.83,115.802l0,-25.48" style="fill:none;stroke:#444241;stroke-width:6.21px;stroke-linecap:round;stroke-linejoin:round;"/><path d="M549.807,113.938l11.435,6.401" style="fill:none;stroke:#444241;stroke-width:6.21px;stroke-linecap:round;stroke-linejoin:round;"/></g><path d="M235.776,155.204l-212.047,0c-6.152,0 -11.186,5.034 -11.186,11.186l0,0.063c0,6.152 5.034,11.186 11.186,11.186l212.047,0c6.153,0 11.187,-5.034 11.187,-11.186c0.062,-6.215 -4.972,-11.249 -11.187,-11.249Z" style="fill:none;stroke:#444241;stroke-width:6.21px;stroke-linecap:round;stroke-linejoin:round;"/><path d="M221.296,270.052l0,-34.367c0,-11.062 -9.074,-20.136 -20.136,-20.136l-66.187,0c-11.062,0 -20.136,9.074 -20.136,20.136l0,34.367c0,11.063 9.074,20.136 20.136,20.136l45.306,0l38.096,12.865l-9.322,-14.543c7.209,-3.107 12.243,-10.254 12.243,-18.458Z" style="fill:none;stroke:#444241;stroke-width:6.21px;stroke-linecap:round;stroke-linejoin:round;"/><g><path d="M150.324,264.583c-0.498,0 -0.933,-0.124 -1.368,-0.435l-12.926,-10.13c-0.56,-0.435 -0.87,-1.056 -0.87,-1.74c0,-0.683 0.31,-1.305 0.87,-1.74l12.926,-10.13c0.932,-0.746 2.362,-0.559 3.046,0.373c0.745,0.932 0.559,2.362 -0.373,3.045l-10.69,8.452l10.752,8.39c0.932,0.746 1.118,2.113 0.373,3.045c-0.435,0.622 -1.119,0.87 -1.74,0.87Z" style="fill:#444241;fill-rule:nonzero;"/><path d="M179.968,264.583c-0.622,0 -1.305,-0.31 -1.74,-0.87c-0.746,-0.932 -0.56,-2.361 0.373,-3.045l10.751,-8.39l-10.751,-8.39c-0.933,-0.745 -1.119,-2.113 -0.373,-3.045c0.746,-0.932 2.113,-1.119 3.045,-0.373l12.927,10.13c0.559,0.435 0.87,1.057 0.87,1.74c0,0.684 -0.311,1.305 -0.87,1.74l-12.927,10.131c-0.373,0.248 -0.87,0.372 -1.305,0.372Z" style="fill:#444241;fill-rule:nonzero;"/><path d="M157.906,270.301c-0.311,0 -0.622,-0.062 -0.933,-0.186c-1.118,-0.498 -1.553,-1.803 -1.056,-2.921l14.045,-29.707c0.497,-1.119 1.802,-1.554 2.921,-1.056c1.119,0.497 1.554,1.802 1.057,2.921l-14.046,29.706c-0.373,0.808 -1.118,1.243 -1.988,1.243Z" style="fill:#444241;fill-rule:nonzero;"/></g><path d="M488.53,304.358l0,-34.368c0,-11.062 9.073,-20.136 20.136,-20.136l66.125,0c11.062,0 20.135,9.074 20.135,20.136l0,34.368c0,11.062 -9.073,20.136 -20.135,20.136l-45.306,0l-38.096,12.864l9.322,-14.542c-7.147,-3.108 -12.181,-10.193 -12.181,-18.458Z" style="fill:#afe1f2;fill-rule:nonzero;"/><path d="M488.53,304.358l0,-34.368c0,-11.062 9.073,-20.136 20.136,-20.136l10.068,0c-11.063,0 -20.136,9.074 -20.136,20.136l0,34.368c0,8.265 5.034,15.35 12.181,18.458l-6.526,10.192l-12.864,4.35l9.322,-14.542c-7.147,-3.108 -12.181,-10.193 -12.181,-18.458Z" style="fill:#74ccf4;fill-rule:nonzero;"/><path d="M488.53,304.358l0,-34.368c0,-11.062 9.073,-20.136 20.136,-20.136l66.125,0c11.062,0 20.135,9.074 20.135,20.136l0,34.368c0,11.062 -9.073,20.136 -20.135,20.136l-45.306,0l-38.096,12.864l9.322,-14.542c-7.147,-3.108 -12.181,-10.193 -12.181,-18.458Z" style="fill:none;stroke:#444241;stroke-width:6.21px;stroke-linecap:round;stroke-linejoin:round;"/><path d="M540.672,264.521l-19.639,0c-1.74,0 -3.232,1.43 -3.232,3.232l0,1.616c0,1.74 1.43,3.231 3.232,3.231l19.639,0c1.74,0 3.231,-1.429 3.231,-3.231l0,-1.616c0,-1.802 -1.429,-3.232 -3.231,-3.232Z" style="fill:#fff;fill-rule:nonzero;"/><path d="M572.864,277.634l-51.831,0c-1.74,0 -3.232,1.43 -3.232,3.232l0,1.616c0,1.74 1.43,3.232 3.232,3.232l51.831,0c1.74,0 3.232,-1.43 3.232,-3.232l0,-1.616c0,-1.74 -1.492,-3.232 -3.232,-3.232Z" style="fill:#fff;fill-rule:nonzero;"/><path d="M558.632,290.375l-37.599,0c-1.74,0 -3.232,1.429 -3.232,3.231l0,1.616c0,1.74 1.43,3.232 3.232,3.232l37.599,0c1.74,0 3.232,-1.43 3.232,-3.232l0,-1.616c0,-1.802 -1.492,-3.231 -3.232,-3.231Z" style="fill:#fff;fill-rule:nonzero;"/><path d="M541.045,302.431l-20.012,0c-1.74,0 -3.232,1.43 -3.232,3.232l0,1.616c0,1.74 1.43,3.231 3.232,3.231l20.012,0c1.74,0 3.231,-1.429 3.231,-3.231l0,-1.616c-0.062,-1.74 -1.491,-3.232 -3.231,-3.232Z" style="fill:#fff;fill-rule:nonzero;"/><g><path d="M624.571,210.95l0,11" style="fill:none;stroke:#444241;stroke-width:6.21px;stroke-linecap:round;stroke-linejoin:round;"/><path d="M606.362,228.973l11,0" style="fill:none;stroke:#444241;stroke-width:6.21px;stroke-linecap:round;stroke-linejoin:round;"/><path d="M624.384,247.182l0,-11" style="fill:none;stroke:#444241;stroke-width:6.21px;stroke-linecap:round;stroke-linejoin:round;"/><path d="M642.594,229.159l-11.001,0" style="fill:none;stroke:#444241;stroke-width:6.21px;stroke-linecap:round;stroke-linejoin:round;"/></g><g><path d="M112.165,314.239l0,11.062" style="fill:none;stroke:#444241;stroke-width:6.21px;stroke-linecap:round;stroke-linejoin:round;"/><path d="M93.956,332.262l11,0" style="fill:none;stroke:#444241;stroke-width:6.21px;stroke-linecap:round;stroke-linejoin:round;"/><path d="M111.916,350.471l0,-11" style="fill:none;stroke:#444241;stroke-width:6.21px;stroke-linecap:round;stroke-linejoin:round;"/><path d="M130.126,332.448l-11,0" style="fill:none;stroke:#444241;stroke-width:6.21px;stroke-linecap:round;stroke-linejoin:round;"/></g><g><path d="M445.462,78.017l0,10.254" style="fill:none;stroke:#444241;stroke-width:6.21px;stroke-linecap:round;stroke-linejoin:round;"/><path d="M428.496,94.797l10.254,0" style="fill:none;stroke:#444241;stroke-width:6.21px;stroke-linecap:round;stroke-linejoin:round;"/><path d="M445.275,111.763l0,-10.255" style="fill:none;stroke:#444241;stroke-width:6.21px;stroke-linecap:round;stroke-linejoin:round;"/><path d="M462.242,94.983l-10.255,0" style="fill:none;stroke:#444241;stroke-width:6.21px;stroke-linecap:round;stroke-linejoin:round;"/></g><circle cx="439.433" cy="235.747" r="6.215" style="fill:none;stroke:#444241;stroke-width:6.21px;stroke-linecap:round;stroke-linejoin:round;"/><circle cx="186.866" cy="333.443" r="6.215" style="fill:none;stroke:#444241;stroke-width:6.21px;stroke-linecap:round;stroke-linejoin:round;"/><g><g><path d="M457.581,161.17l0,1.989" style="fill:none;stroke:#444241;stroke-width:6.21px;stroke-linecap:round;stroke-linejoin:round;"/><path d="M457.581,185.967l0,1.989" style="fill:none;stroke:#444241;stroke-width:6.21px;stroke-linecap:round;stroke-linejoin:round;"/></g><g><path d="M445.959,167.882l1.74,0.994" style="fill:none;stroke:#444241;stroke-width:6.21px;stroke-linecap:round;stroke-linejoin:round;"/><path d="M467.462,180.249l1.74,0.995" style="fill:none;stroke:#444241;stroke-width:6.21px;stroke-linecap:round;stroke-linejoin:round;"/></g><g><path d="M445.959,181.244l1.74,-0.995" style="fill:none;stroke:#444241;stroke-width:6.21px;stroke-linecap:round;stroke-linejoin:round;"/><path d="M467.462,168.876l1.74,-0.994" style="fill:none;stroke:#444241;stroke-width:6.21px;stroke-linecap:round;stroke-linejoin:round;"/></g></g><g><g><path d="M655.769,271.357l0,1.989" style="fill:none;stroke:#444241;stroke-width:6.21px;stroke-linecap:round;stroke-linejoin:round;"/><path d="M655.769,296.154l0,1.989" style="fill:none;stroke:#444241;stroke-width:6.21px;stroke-linecap:round;stroke-linejoin:round;"/></g><g><path d="M644.147,278.069l1.74,0.995" style="fill:none;stroke:#444241;stroke-width:6.21px;stroke-linecap:round;stroke-linejoin:round;"/><path d="M665.65,290.437l1.678,0.994" style="fill:none;stroke:#444241;stroke-width:6.21px;stroke-linecap:round;stroke-linejoin:round;"/></g><g><path d="M644.147,291.431l1.74,-0.994" style="fill:none;stroke:#444241;stroke-width:6.21px;stroke-linecap:round;stroke-linejoin:round;"/><path d="M665.65,279.064l1.678,-0.995" style="fill:none;stroke:#444241;stroke-width:6.21px;stroke-linecap:round;stroke-linejoin:round;"/></g></g><g><g><path d="M43.616,262.16l0,1.988" style="fill:none;stroke:#444241;stroke-width:6.21px;stroke-linecap:round;stroke-linejoin:round;"/><path d="M43.616,286.956l0,1.989" style="fill:none;stroke:#444241;stroke-width:6.21px;stroke-linecap:round;stroke-linejoin:round;"/></g><g><path d="M32.057,268.872l1.678,0.994" style="fill:none;stroke:#444241;stroke-width:6.21px;stroke-linecap:round;stroke-linejoin:round;"/><path d="M53.498,281.239l1.74,0.994" style="fill:none;stroke:#444241;stroke-width:6.21px;stroke-linecap:round;stroke-linejoin:round;"/></g><g><path d="M32.057,282.233l1.678,-0.994" style="fill:none;stroke:#444241;stroke-width:6.21px;stroke-linecap:round;stroke-linejoin:round;"/><path d="M53.498,269.866l1.74,-0.994" style="fill:none;stroke:#444241;stroke-width:6.21px;stroke-linecap:round;stroke-linejoin:round;"/></g></g><g><g><path d="M250.194,80.876l0,2.175" style="fill:none;stroke:#444241;stroke-width:6.21px;stroke-linecap:round;stroke-linejoin:round;"/><path d="M250.194,108.283l0,2.175" style="fill:none;stroke:#444241;stroke-width:6.21px;stroke-linecap:round;stroke-linejoin:round;"/></g><g><path d="M237.33,88.271l1.927,1.057" style="fill:none;stroke:#444241;stroke-width:6.21px;stroke-linecap:round;stroke-linejoin:round;"/><path d="M261.07,101.944l1.927,1.118" style="fill:none;stroke:#444241;stroke-width:6.21px;stroke-linecap:round;stroke-linejoin:round;"/></g><g><path d="M237.33,103.062l1.927,-1.118" style="fill:none;stroke:#444241;stroke-width:6.21px;stroke-linecap:round;stroke-linejoin:round;"/><path d="M261.07,89.328l1.927,-1.057" style="fill:none;stroke:#444241;stroke-width:6.21px;stroke-linecap:round;stroke-linejoin:round;"/></g></g><rect x="48.402" y="177.701" width="19.701" height="25.418" style="fill:none;stroke:#444241;stroke-width:6.21px;stroke-linecap:round;stroke-linejoin:round;"/><rect x="191.403" y="177.701" width="19.701" height="25.418" style="fill:none;stroke:#444241;stroke-width:6.21px;stroke-linecap:round;stroke-linejoin:round;"/><path d="M81.464,116.051l-57.176,0l9.882,38.78l37.413,0l9.881,-38.78Z" style="fill:none;stroke:#444241;stroke-width:6.21px;stroke-linecap:round;stroke-linejoin:round;"/><rect x="114.34" y="77.209" width="32.317" height="76.131" style="fill:#e26144;"/><rect x="135.346" y="77.209" width="11.373" height="76.131" style="fill:#ba3422;"/><rect x="147.03" y="97.407" width="32.317" height="55.933" style="fill:#f8a200;"/><rect x="165.86" y="97.407" width="13.486" height="55.933" style="fill:#f77b00;"/><rect x="180.03" y="81.683" width="32.317" height="71.594" style="fill:#afe1f2;"/><rect x="201.036" y="81.683" width="11.311" height="71.594" style="fill:#74ccf4;"/><rect x="114.34" y="77.209" width="32.317" height="76.131" style="fill:none;stroke:#444241;stroke-width:6.21px;stroke-linecap:round;stroke-linejoin:round;"/><rect x="147.03" y="97.407" width="32.317" height="55.933" style="fill:none;stroke:#444241;stroke-width:6.21px;stroke-linecap:round;stroke-linejoin:round;"/><rect x="180.03" y="81.683" width="32.317" height="71.594" style="fill:none;stroke:#444241;stroke-width:6.21px;stroke-linecap:round;stroke-linejoin:round;"/><path d="M51.571,115.802l0.187,-4.785c0.621,-14.542 -5.78,-28.463 -17.277,-37.351" style="fill:none;stroke:#444241;stroke-width:6.21px;stroke-linecap:round;stroke-linejoin:round;"/><path d="M51.26,97.655c2.921,-5.469 7.023,-10.316 12.057,-14.231" style="fill:none;stroke:#444241;stroke-width:6.21px;stroke-linecap:round;stroke-linejoin:round;"/><path d="M39.328,56.638c2.113,-3.667 0.87,-8.328 -2.796,-10.379c-3.667,-2.113 -8.328,-0.87 -10.379,2.797c-0.497,0.87 -0.808,1.74 -0.932,2.672c-0.311,-0.994 -0.87,-1.926 -1.554,-2.734c-2.797,-3.107 -7.644,-3.356 -10.751,-0.559c-3.108,2.796 -3.356,7.644 -0.56,10.751c0.684,0.746 1.43,1.305 2.237,1.678c-1.056,0 -2.113,0.186 -3.107,0.684c-3.853,1.74 -5.531,6.214 -3.853,10.068c1.74,3.853 6.215,5.531 10.068,3.853c0.87,-0.373 1.678,-0.933 2.299,-1.616c-0.31,0.994 -0.435,2.051 -0.31,3.169c0.435,4.164 4.226,7.209 8.389,6.774c4.164,-0.435 7.21,-4.226 6.775,-8.389c-0.125,-0.995 -0.373,-1.865 -0.808,-2.673c0.808,0.622 1.802,1.057 2.921,1.305c4.101,0.87 8.141,-1.74 9.011,-5.904c0.87,-4.101 -1.74,-8.141 -5.904,-9.011c-0.932,-0.187 -1.927,-0.187 -2.797,-0.062c0.808,-0.684 1.492,-1.492 2.051,-2.424Z" style="fill:none;stroke:#444241;stroke-width:6.21px;stroke-linecap:round;stroke-linejoin:round;"/><circle cx="26.277" cy="63.785" r="4.04" style="fill:#fff;"/><path d="M89.419,76.712c3.418,-1.989 4.599,-6.402 2.61,-9.82c-1.988,-3.418 -6.401,-4.599 -9.819,-2.61c-0.808,0.435 -1.492,1.057 -1.989,1.74c0.187,-0.932 0.249,-1.988 0,-2.983c-0.808,-3.915 -4.661,-6.401 -8.576,-5.531c-3.915,0.808 -6.401,4.661 -5.531,8.576c0.186,0.933 0.559,1.741 1.056,2.486c-0.87,-0.497 -1.802,-0.808 -2.859,-0.932c-3.977,-0.435 -7.519,2.486 -7.892,6.401c-0.435,3.978 2.486,7.52 6.401,7.893c0.932,0.124 1.802,0 2.672,-0.249c-0.746,0.684 -1.367,1.492 -1.74,2.424c-1.616,3.667 0,7.893 3.667,9.509c3.667,1.616 7.893,0 9.508,-3.667c0.373,-0.87 0.56,-1.74 0.622,-2.61c0.373,0.87 0.994,1.74 1.74,2.424c2.983,2.672 7.52,2.423 10.192,-0.56c2.673,-2.983 2.424,-7.52 -0.559,-10.192c-0.684,-0.621 -1.492,-1.056 -2.3,-1.367c0.87,-0.062 1.865,-0.373 2.797,-0.932Z" style="fill:#e26144;fill-rule:nonzero;"/><path d="M89.419,76.712c3.418,-1.989 4.599,-6.402 2.61,-9.82c-1.988,-3.418 -6.401,-4.599 -9.819,-2.61c-0.808,0.435 -1.492,1.057 -1.989,1.74c0.187,-0.932 0.249,-1.988 0,-2.983c-0.808,-3.915 -4.661,-6.401 -8.576,-5.531c-3.915,0.808 -6.401,4.661 -5.531,8.576c0.186,0.933 0.559,1.741 1.056,2.486c-0.87,-0.497 -1.802,-0.808 -2.859,-0.932c-3.977,-0.435 -7.519,2.486 -7.892,6.401c-0.435,3.978 2.486,7.52 6.401,7.893c0.932,0.124 1.802,0 2.672,-0.249c-0.746,0.684 -1.367,1.492 -1.74,2.424c-1.616,3.667 0,7.893 3.667,9.509c3.667,1.616 7.893,0 9.508,-3.667c0.373,-0.87 0.56,-1.74 0.622,-2.61c0.373,0.87 0.994,1.74 1.74,2.424c2.983,2.672 7.52,2.423 10.192,-0.56c2.673,-2.983 2.424,-7.52 -0.559,-10.192c-0.684,-0.621 -1.492,-1.056 -2.3,-1.367c0.87,-0.062 1.865,-0.373 2.797,-0.932Z" style="fill:none;stroke:#444241;stroke-width:6.21px;stroke-linecap:round;stroke-linejoin:round;"/><circle cx="75.312" cy="76.401" r="3.853" style="fill:#fff;"/></g></svg>