<?xml version="1.0" encoding="UTF-8" standalone="no"?><!DOCTYPE svg PUBLIC "-//W3C//DTD SVG 1.1//EN" "http://www.w3.org/Graphics/SVG/1.1/DTD/svg11.dtd"><svg width="100%" height="100%" viewBox="0 0 81 81" version="1.1" xmlns="http://www.w3.org/2000/svg" xmlns:xlink="http://www.w3.org/1999/xlink" xml:space="preserve" xmlns:serif="http://www.serif.com/" style="fill-rule:evenodd;clip-rule:evenodd;stroke-linejoin:round;stroke-miterlimit:1.41421;"><path d="M40.496,0c-22.364,0 -40.496,18.585 -40.496,41.512c0,18.34 11.603,33.898 27.697,39.39c2.026,0.379 2.765,-0.902 2.765,-2.003c0,-0.984 -0.035,-3.596 -0.055,-7.059c-11.265,2.507 -13.642,-5.566 -13.642,-5.566c-1.842,-4.796 -4.498,-6.072 -4.498,-6.072c-3.677,-2.574 0.279,-2.523 0.279,-2.523c4.065,0.293 6.203,4.278 6.203,4.278c3.612,6.343 9.48,4.511 11.787,3.448c0.368,-2.681 1.412,-4.51 2.571,-5.547c-8.993,-1.048 -18.448,-4.61 -18.448,-20.517c0,-4.531 1.579,-8.236 4.169,-11.139c-0.417,-1.05 -1.807,-5.27 0.396,-10.986c0,0 3.401,-1.116 11.138,4.256c3.23,-0.922 6.696,-1.381 10.139,-1.396c3.439,0.015 6.905,0.474 10.139,1.396c7.733,-5.372 11.126,-4.256 11.126,-4.256c2.211,5.716 0.821,9.936 0.403,10.986c2.596,2.903 4.165,6.608 4.165,11.139c0,15.947 -9.471,19.456 -18.493,20.483c1.454,1.282 2.75,3.815 2.75,7.689c0,5.547 -0.05,10.025 -0.05,11.386c0,1.111 0.728,2.403 2.784,1.998c16.082,-5.502 27.675,-21.05 27.675,-39.385c0,-22.927 -18.135,-41.512 -40.504,-41.512" style="fill:#fff;"/></svg>