<?xml version="1.0" encoding="UTF-8" standalone="no"?><!DOCTYPE svg PUBLIC "-//W3C//DTD SVG 1.1//EN" "http://www.w3.org/Graphics/SVG/1.1/DTD/svg11.dtd"><svg width="100%" height="100%" viewBox="0 0 81 81" version="1.1" xmlns="http://www.w3.org/2000/svg" xmlns:xlink="http://www.w3.org/1999/xlink" xml:space="preserve" xmlns:serif="http://www.serif.com/" style="fill-rule:evenodd;clip-rule:evenodd;stroke-linejoin:round;stroke-miterlimit:1.41421;"><path d="M40.5,0c-22.367,0 -40.5,18.133 -40.5,40.5c0,22.367 18.133,40.5 40.5,40.5c22.367,0 40.5,-18.133 40.5,-40.5c0,-22.372 -18.133,-40.5 -40.5,-40.5Zm25.31,63.987c0,1.005 -0.818,1.823 -1.834,1.823l-46.963,0c-1.005,0 -1.829,-0.812 -1.829,-1.823l0,-46.974c0,-1.005 0.818,-1.829 1.829,-1.829l46.963,0c1.011,0 1.834,0.818 1.834,1.829l0,46.974Zm-35.436,-23.487c0,-5.59 4.536,-10.126 10.126,-10.126c5.59,0 10.126,4.536 10.126,10.126c0,5.59 -4.536,10.126 -10.126,10.126c-5.59,0 -10.126,-4.536 -10.126,-10.126Zm20.252,-20.253l10.127,0l0,10.127l-10.127,0l0,-10.127Zm4.602,17.721l5.525,0l0,22.779l-40.5,0l0,-22.779l5.53,0c-0.215,1.016 -0.341,1.456 -0.341,2.532c0,8.314 6.76,15.063 15.063,15.063c8.315,0 15.064,-6.749 15.064,-15.063c-0.006,-1.076 -0.127,-1.516 -0.341,-2.532Z" style="fill:#fff;fill-rule:nonzero;"/></svg>