<?xml version="1.0" encoding="UTF-8" standalone="no"?><!DOCTYPE svg PUBLIC "-//W3C//DTD SVG 1.1//EN" "http://www.w3.org/Graphics/SVG/1.1/DTD/svg11.dtd"><svg width="100%" height="100%" viewBox="0 0 81 81" version="1.1" xmlns="http://www.w3.org/2000/svg" xmlns:xlink="http://www.w3.org/1999/xlink" xml:space="preserve" xmlns:serif="http://www.serif.com/" style="fill-rule:evenodd;clip-rule:evenodd;stroke-linejoin:round;stroke-miterlimit:1.41421;"><g id="Line"><circle cx="40.5" cy="40.5" r="40.5" style="fill:#fff;"/><path d="M40.493,17.28c6.2,0.054 11.902,1.68 16.859,5.508c3.342,2.579 5.817,5.807 6.925,9.956c1.3,4.861 0.369,9.337 -2.412,13.474c-1.977,2.941 -4.594,5.256 -7.293,7.49c-4.342,3.593 -8.998,6.718 -13.958,9.384c-0.436,0.232 -0.896,0.445 -1.371,0.578c-0.779,0.22 -1.328,-0.289 -1.191,-1.084c0.067,-0.386 0.265,-0.746 0.346,-1.131c0.245,-1.177 0.534,-2.349 0.67,-3.539c0.102,-0.906 -0.376,-1.306 -1.293,-1.391c-5.63,-0.523 -10.739,-2.385 -15.072,-6.085c-3.738,-3.193 -6.076,-7.208 -6.497,-12.168c-0.364,-4.289 0.91,-8.149 3.517,-11.547c3.541,-4.62 8.336,-7.278 13.908,-8.651c2.251,-0.555 4.538,-0.815 6.862,-0.794Zm-0.392,18.466c0.174,0.214 0.252,0.302 0.321,0.397c1.481,2.006 2.96,4.016 4.448,6.022c0.445,0.598 1.007,0.819 1.562,0.643c0.56,-0.177 0.888,-0.645 0.889,-1.364c0.005,-3.123 0.002,-6.248 -0.01,-9.373c-0.004,-0.773 -0.565,-1.339 -1.275,-1.343c-0.719,-0.007 -1.268,0.591 -1.27,1.395c-0.004,1.709 -0.003,3.416 -0.009,5.127c0,0.147 -0.029,0.295 -0.055,0.551c-0.162,-0.206 -0.253,-0.316 -0.336,-0.429c-1.444,-1.959 -2.884,-3.92 -4.33,-5.878c-0.503,-0.676 -0.982,-0.882 -1.588,-0.697c-0.622,0.191 -0.901,0.662 -0.905,1.528c-0.009,3.002 -0.019,6 -0.022,9.001c0,0.936 0.502,1.514 1.284,1.522c0.798,0.009 1.3,-0.544 1.309,-1.484c0.009,-1.147 -0.009,-2.292 -0.014,-3.439c-0.001,-0.675 0.001,-1.356 0.001,-2.179Zm11.49,-2.451c1.104,0 2.181,0.007 3.256,-0.002c0.898,-0.007 1.476,-0.499 1.492,-1.242c0.016,-0.795 -0.553,-1.333 -1.467,-1.34c-1.459,-0.011 -2.915,-0.011 -4.373,0.003c-1.039,0.009 -1.505,0.494 -1.514,1.549c-0.01,0.918 -0.005,1.833 -0.006,2.749c-0.004,2.124 -0.015,4.25 -0.008,6.373c0.004,0.992 0.476,1.457 1.452,1.461c1.542,0.005 3.082,-0.004 4.624,0.005c0.624,0.005 1.038,-0.307 1.25,-0.852c0.312,-0.814 -0.348,-1.684 -1.283,-1.703c-1.139,-0.02 -2.28,-0.004 -3.434,-0.004c0,-0.769 0,-1.464 0,-2.21c1.158,0 2.277,0.007 3.396,-0.002c0.793,-0.007 1.341,-0.516 1.369,-1.238c0.024,-0.748 -0.523,-1.291 -1.349,-1.323c-0.354,-0.013 -0.707,-0.004 -1.061,-0.004c-0.782,0 -1.563,0 -2.344,0c0,-0.782 0,-1.463 0,-2.22Zm-24.336,7.009c0,-0.317 0,-0.563 0,-0.809c-0.004,-2.434 0,-4.87 -0.018,-7.302c-0.007,-0.902 -0.527,-1.46 -1.283,-1.455c-0.752,0.007 -1.263,0.579 -1.265,1.476c-0.012,3.057 -0.016,6.118 -0.01,9.177c0.003,0.979 0.494,1.452 1.468,1.454c1.478,0.005 2.955,0.005 4.432,0c0.892,0 1.467,-0.491 1.476,-1.251c0.008,-0.76 -0.605,-1.285 -1.515,-1.29c-1.058,-0.002 -2.117,0 -3.285,0Zm5.944,-3.544c-0.007,0 -0.011,0 -0.017,0c0,1.54 -0.007,3.08 0.002,4.62c0.006,0.88 0.515,1.45 1.277,1.455c0.768,0.007 1.285,-0.546 1.285,-1.434c-0.002,-3.101 -0.014,-6.198 -0.037,-9.299c-0.002,-0.257 -0.066,-0.548 -0.199,-0.766c-0.316,-0.518 -0.817,-0.679 -1.402,-0.525c-0.564,0.146 -0.902,0.629 -0.908,1.332c-0.01,1.538 -0.001,3.077 -0.001,4.617Z"/></g></svg>