<?xml version="1.0" encoding="UTF-8" standalone="no"?><!DOCTYPE svg PUBLIC "-//W3C//DTD SVG 1.1//EN" "http://www.w3.org/Graphics/SVG/1.1/DTD/svg11.dtd"><svg width="100%" height="100%" viewBox="0 0 81 81" version="1.1" xmlns="http://www.w3.org/2000/svg" xmlns:xlink="http://www.w3.org/1999/xlink" xml:space="preserve" xmlns:serif="http://www.serif.com/" style="fill-rule:evenodd;clip-rule:evenodd;stroke-linejoin:round;stroke-miterlimit:1.41421;"><rect x="26.578" y="35.438" width="6.328" height="18.984" style="fill:#fff;"/><circle cx="29.742" cy="29.109" r="3.797" style="fill:#fff;"/><path d="M40.5,0c-22.218,0 -40.5,18.282 -40.5,40.5c0,22.218 18.282,40.5 40.5,40.5c22.218,0 40.5,-18.282 40.5,-40.5c0,-22.218 -18.282,-40.5 -40.5,-40.5Zm20.25,58.219c0,1.388 -1.143,2.531 -2.531,2.531l-35.438,0c-1.388,0 -2.531,-1.143 -2.531,-2.531l0,-35.438c0,-1.388 1.143,-2.531 2.531,-2.531l35.438,0c1.388,0 2.531,1.143 2.531,2.531l0,35.438Z" style="fill:#fff;fill-rule:nonzero;"/><path d="M48.094,35.438c-3.493,-0.001 -6.328,1.265 -6.328,4.429l0,-4.43l-6.328,0l0,18.985l6.328,0l0,-10.125c0,-1.051 0.632,-4.43 3.164,-4.43c1.746,0 3.164,0.848 3.164,1.899l0,12.656l6.328,0l0,-12.656c0,-3.472 -2.857,-6.329 -6.328,-6.329Z" style="fill:#fff;fill-rule:nonzero;"/></svg>