<?xml version="1.0" encoding="UTF-8" standalone="no"?><!DOCTYPE svg PUBLIC "-//W3C//DTD SVG 1.1//EN" "http://www.w3.org/Graphics/SVG/1.1/DTD/svg11.dtd"><svg width="100%" height="100%" viewBox="0 0 864 337" version="1.1" xmlns="http://www.w3.org/2000/svg" xmlns:xlink="http://www.w3.org/1999/xlink" xml:space="preserve" xmlns:serif="http://www.serif.com/" style="fill-rule:evenodd;clip-rule:evenodd;stroke-linejoin:round;stroke-miterlimit:1.41421;"><text x="276.345px" y="212.475px" style="font-family:'PTSans-NarrowBold', 'PT Sans Narrow', sans-serif;font-weight:700;font-stretch:condensed;font-size:125.675px;">P<tspan x="322.844px 339.308px 360.798px 420.494px " y="212.475px 212.475px 212.475px 212.475px ">. AG</tspan>I K<tspan x="601.34px 664.303px 723.496px " y="212.475px 212.475px 212.475px ">ARA</tspan>S.</text><path id="Base" d="M217.395,194.602l0,79.46l-54.349,31.378l-54.349,31.378l-24.215,-13.981l-30.133,-17.397l-33.236,-19.189l13.867,-24.019l63.369,36.587l-13.868,24.021l-0.011,0.018l-63.369,-36.586l0.012,-0.021l-21.113,-12.189l0,-62.757l0,-62.757l54.349,-31.378l54.348,-31.378l54.349,31.378l54.349,31.378l0,46.054Zm0,0l0,-14.575l-6.311,3.643l-6.311,3.644l6.311,3.644l6.311,3.644Z" style="fill:url(#_Linear1);"/><path id="Top" d="M0,148.548l54.349,31.379l54.348,31.378l54.349,-31.378l54.349,-31.379l-54.349,-31.378l-54.349,-31.378l-54.348,31.378l-54.349,31.378Z" style="fill:url(#_Linear2);fill-rule:nonzero;"/><g id="A"><path id="Compound-Shape" serif:id="Compound Shape" d="M84.439,322.972l24.258,14.006l0,-62.757l0,-62.756l-54.348,-31.379l-54.349,-31.378l0,125.513l21.07,12.165l13.91,-24.092l63.369,36.586l-13.91,24.092Z" style="fill:url(#_Linear3);"/><path id="Compound-Shape1" serif:id="Compound Shape" d="M25.289,288.662l-12.645,-7.3l-12.644,-7.3l0,-125.514l12.644,7.3l12.645,7.301l0,125.513Z" style="fill:#1c74bc;"/><path id="Compound-Shape2" serif:id="Compound Shape" d="M108.697,336.917l-12.644,-7.3l-12.644,-7.301l0,-125.512l12.644,7.3l12.644,7.3l0,125.513Z" style="fill:#1c74bc;"/><path id="Compound-Shape3" serif:id="Compound Shape" d="M0,179.927l0,-31.379l54.349,31.379l54.348,31.378l0,31.378l-54.348,-31.378l-54.349,-31.378Z" style="fill:#1c74bc;"/><path id="Compound-Shape4" serif:id="Compound Shape" d="M0,243.274l0,-31.378l54.349,31.378l54.348,31.379l0,31.378l-54.348,-31.378l-54.349,-31.379Z" style="fill:#1c74bc;"/><path id="Compound-Shape5" serif:id="Compound Shape" d="M108.275,211.061l-53.926,-31.134l-54.349,-31.379l0,124.769c7.983,0.631 16.517,-0.122 25.289,-2.186l0,-13.256l14.869,8.584c9.403,-3.685 18.877,-8.773 28.058,-15.178l-13.867,-8.007l-29.06,-16.778l0,-31.969l29.06,16.778l29.06,16.777l0,11.118c3.231,-2.909 6.394,-5.992 9.471,-9.243c5.744,-6.071 10.883,-12.41 15.395,-18.896Z" style="fill:url(#_Linear4);"/><path id="Polygon" d="M25.289,226.566l0,-31.964l27.681,15.982l-27.681,15.982Z" style="fill:#013d64;fill-rule:nonzero;"/><path id="Polygon1" serif:id="Polygon" d="M25.266,288.662l0,-30.799l26.672,15.4l-26.672,15.399Z" style="fill:#013d64;fill-rule:nonzero;"/></g><g id="G"><path id="Compound-Shape6" serif:id="Compound Shape" d="M151.423,232.594l0,31.346l-13.575,-7.838l-13.575,-7.837l0.003,-0.002l-12.875,-7.433l13.573,-23.508l26.447,15.269l0.002,-0.001l0,0.002l0.001,0.001l-0.001,0.001Z" style="fill:#2a6c43;"/><path id="Compound-Shape7" serif:id="Compound Shape" d="M108.694,336.812l12.644,-7.3l12.644,-7.3l0,-125.514l-12.644,7.301l-12.644,7.3l0,125.513Z" style="fill:#3ab54a;"/><path id="Compound-Shape8" serif:id="Compound Shape" d="M217.391,179.92l0,-31.377l-54.348,31.377l-54.349,31.379l0,31.378l54.349,-31.378l54.348,-31.379Z" style="fill:#3ab54a;"/><path id="Compound-Shape9" serif:id="Compound Shape" d="M217.392,274.055l0,-31.378l-54.349,31.378l-54.349,31.379l0,31.378l54.349,-31.378l54.349,-31.379Z" style="fill:#3ab54a;"/><path id="Compound-Shape10" serif:id="Compound Shape" d="M217.392,256.036l0,-31.378l-25.289,14.6l0,31.379l25.289,-14.601Z" style="fill:#3ab54a;"/><path id="Compound-Shape11" serif:id="Compound Shape" d="M217.387,225.877l0,-31.378l-25.288,14.6l0,31.378l25.288,-14.6Z" style="fill:#3ab54a;"/><path id="Compound-Shape12" serif:id="Compound Shape" d="M151.425,232.591l41.705,-24.078l0,31.378l-41.705,24.078l0,-31.378Z" style="fill:#3ab54a;"/><path id="Compound-Shape13" serif:id="Compound Shape" d="M161.55,275.029l1.495,-0.864l29.06,-16.777l0,-16.794l-40.677,23.485l0,-31.378l40.673,-23.483l0,-0.009l25.289,-14.601l0,30.162l0.004,-0.002l0,49.217c-0.633,0.362 -1.277,0.714 -1.929,1.053c-16.578,8.627 -35.986,7.99 -53.915,-0.009Zm-27.565,-19.604l0,-27.238l29.06,-16.778l54.349,-31.379l0,-31.378l-54.349,31.378l-29.06,16.778l-12.644,7.301l-12.482,7.206c1.884,6.778 4.53,13.547 7.97,20.157c4.732,9.094 10.573,17.132 17.156,23.953Z" style="fill:url(#_Linear5);"/><path id="Polygon2" serif:id="Polygon" d="M192.106,257.268l0,-16.76l-14.514,8.38l14.514,8.38Z" style="fill:#2a6c43;fill-rule:nonzero;"/></g><g id="Laptop"><path id="Compound-Shape14" serif:id="Compound Shape" d="M32.164,153.155l19.693,11.37l44.46,25.669l44.459,-25.669l44.46,-25.669l-44.46,-25.668l-19.692,-11.37l-43.388,25.049l-45.532,26.288Z" style="fill:url(#_Linear6);"/><path id="Compound-Shape15" serif:id="Compound Shape" d="M102.585,157.969l6.454,3.727l14.572,8.413l14.572,-8.413l14.572,-8.413l-14.572,-8.413l-6.455,-3.727l-14.22,8.21l-14.923,8.616Z" style="fill:#404040;"/><path id="Compound-Shape16" serif:id="Compound Shape" d="M76.748,170.935l-13.839,-7.989l-16.393,-9.465l37.9,-21.881l36.116,-20.852l16.393,9.464l13.839,7.99l-36.861,21.282l-37.155,21.451Z" style="fill:#404040;"/><path id="Compound-Shape17" serif:id="Compound Shape" d="M32.159,153.149l19.698,11.373l44.46,25.669l44.459,-25.669l40.169,-23.191l0,0l2.142,-1.237l2.144,-1.238l0,4.949l0.005,0.003l-44.46,25.669l-44.459,25.668l-44.46,-25.668l-19.698,-11.373l0,-4.955Z" style="fill:#666465;"/><path id="Compound-Shape18" serif:id="Compound Shape" d="M120.583,0l0,102.101l-44.211,25.526l-44.211,25.525l0,-51.051l0,-28.168l44.211,-25.525l44.211,-25.525l0,-22.883Z" style="fill:#3c4eb5;"/><path id="Compound-Shape19" serif:id="Compound Shape" d="M124.391,2.224l0,102.101l-44.211,25.526l-44.211,25.525l0,-51.051l0,-28.168l44.211,-25.525l44.211,-25.525l0,-22.883Z" style="fill:#313235;"/><path id="Compound-Shape20" serif:id="Compound Shape" d="M118.068,13.839l0,87.497l-37.888,21.875l-37.887,21.874l0,-43.749l0,-24.139l37.887,-21.874l37.888,-21.875l0,-19.609Z"/><path id="Compound-Shape21" serif:id="Compound Shape" d="M120.583,22.907l0,-0.024l-0.021,0.012l-0.003,-0.002l0,0.003l-44.187,25.512l-44.211,25.525l0,-22.883l0,102.102l3.808,-2.199l0,-46.628l0,-28.168l44.211,-25.525l40.379,-23.313l0,0.001l1.917,-1.107l1.917,-1.107l-1.917,-1.106l-1.893,-1.093Zm-84.589,132.469l0,-2.214l0,-2.213l-1.917,1.107l-1.916,1.106l3.833,2.214Z" style="fill:#666465;"/><path id="Compound-Shape22" serif:id="Compound Shape" d="M52.451,84.916l-0.671,-1.824l-2.488,2.987l-2.489,2.986l0.671,1.825l2.489,-2.987l2.488,-2.987Z" style="fill:#0f0;"/><path id="Compound-Shape23" serif:id="Compound Shape" d="M51.857,83.173l-2.822,-0.73l-2.823,-0.729l-0.857,1.297l5.646,1.459l0.856,-1.297Z" style="fill:#0f0;"/><path id="Compound-Shape24" serif:id="Compound Shape" d="M63.412,82.267l0,-2.361l-4.09,2.361l-4.091,2.362l0,2.362l4.091,-2.362l4.09,-2.362Z" style="fill:#0f0;"/><g id="AGI-LOGO-BOX" serif:id="AGI LOGO BOX"><g opacity="0.44"><path id="Base1" serif:id="Base" d="M86.297,90.731l0,9.883l-3.058,3.902l-3.059,3.903l-1.362,-1.739l-1.696,-2.164l-1.87,-2.386l0.78,-2.988l3.566,4.55l-0.78,2.988l-0.001,0.002l-3.566,-4.55l0.001,-0.002l-1.188,-1.516l0,-7.806l0,-7.805l3.058,-3.903l3.058,-3.903l3.059,3.903l3.058,3.903l0,5.728Zm0,0l0,-1.813l-0.355,0.453l-0.355,0.453l0.355,0.453l0.355,0.454Z" style="fill:url(#_Linear7);"/><path id="Top1" serif:id="Top" d="M74.064,85.003l3.058,3.902l3.058,3.903l3.059,-3.903l3.058,-3.902l-3.058,-3.903l-3.059,-3.903l-3.058,3.903l-3.058,3.903Z" style="fill:url(#_Linear8);fill-rule:nonzero;"/><g id="A1" serif:id="A"><path id="Compound-Shape25" serif:id="Compound Shape" d="M78.815,106.697l1.365,1.742l0,-7.806l0,-7.805l-3.058,-3.903l-3.058,-3.902l0,15.61l1.185,1.513l0.783,-2.996l3.566,4.55l-0.783,2.997Z" style="fill:url(#_Linear9);"/><path id="Compound-Shape26" serif:id="Compound Shape" d="M75.487,102.429l-0.712,-0.908l-0.711,-0.907l0,-15.611l1.423,1.815l0,15.611Z" style="fill:#1c74bc;"/><path id="Compound-Shape27" serif:id="Compound Shape" d="M80.18,108.431l-0.711,-0.908l-0.712,-0.908l0,-15.611l0.712,0.908l0.711,0.908l0,15.611Z" style="fill:#1c74bc;"/><path id="Compound-Shape28" serif:id="Compound Shape" d="M74.064,88.905l0,-3.902l3.058,3.902l3.058,3.903l0,3.903l-3.058,-3.903l-3.058,-3.903Z" style="fill:#1c74bc;"/><path id="Compound-Shape29" serif:id="Compound Shape" d="M74.064,96.784l0,-3.903l3.058,3.903l3.058,3.903l0,3.902l-3.058,-3.902l-3.058,-3.903Z" style="fill:#1c74bc;"/><path id="Compound-Shape30" serif:id="Compound Shape" d="M80.157,92.778l-3.035,-3.873l-3.058,-3.902l0,15.518c0.449,0.078 0.929,-0.015 1.423,-0.272l0,-1.649l0.837,1.068c0.529,-0.458 1.062,-1.091 1.579,-1.888l-0.781,-0.996l-1.635,-2.086l0,-3.977l3.27,4.174l0,1.382c0.182,-0.361 0.36,-0.745 0.533,-1.149c0.323,-0.755 0.613,-1.543 0.867,-2.35Z" style="fill:url(#_Linear10);"/><path id="Polygon3" serif:id="Polygon" d="M75.487,94.706l0,-3.975l1.557,1.987l-1.557,1.988Z" style="fill:#013d64;fill-rule:nonzero;"/><path id="Polygon4" serif:id="Polygon" d="M75.485,102.429l0,-3.83l1.501,1.915l-1.501,1.915Z" style="fill:#013d64;fill-rule:nonzero;"/></g><g id="G1" serif:id="G"><path id="Compound-Shape31" serif:id="Compound Shape" d="M82.585,95.456l0,3.899l-0.764,-0.975l-0.764,-0.975l-0.725,-0.925l0.764,-2.924l1.488,1.899l0.001,0.001Z" style="fill:#2a6c43;"/><path id="Compound-Shape32" serif:id="Compound Shape" d="M80.18,108.418l0.712,-0.908l0.711,-0.908l0,-15.611l-0.711,0.908l-0.712,0.908l0,15.611Z" style="fill:#3ab54a;"/><path id="Compound-Shape33" serif:id="Compound Shape" d="M86.297,88.904l0,-3.902l-3.059,3.902l-3.058,3.903l0,3.903l3.058,-3.903l3.059,-3.903Z" style="fill:#3ab54a;"/><path id="Compound-Shape34" serif:id="Compound Shape" d="M86.297,100.613l0,-3.903l-3.059,3.903l-3.058,3.902l0,3.903l3.058,-3.903l3.059,-3.902Z" style="fill:#3ab54a;"/><path id="Compound-Shape35" serif:id="Compound Shape" d="M86.297,98.371l0,-3.902l-1.423,1.816l0,3.902l1.423,-1.816Z" style="fill:#3ab54a;"/><path id="Compound-Shape36" serif:id="Compound Shape" d="M86.297,94.621l0,-3.903l-1.424,1.816l0,3.902l1.424,-1.815Z" style="fill:#3ab54a;"/><path id="Compound-Shape37" serif:id="Compound Shape" d="M82.585,95.455l2.347,-2.994l0,3.902l-2.347,2.995l0,-3.903Z" style="fill:#3ab54a;"/><path id="Compound-Shape38" serif:id="Compound Shape" d="M83.155,100.734l0.083,-0.108l1.636,-2.087l0,-2.088l-2.289,2.921l0,-3.903l2.289,-2.92l0,-0.002l1.423,-1.815l0,3.751l0,-0.001l0,6.122c-0.036,0.045 -0.072,0.089 -0.109,0.131c-0.932,1.073 -2.025,0.994 -3.033,-0.001Zm-1.551,-2.439l0,-3.387l1.634,-2.087l3.059,-3.903l0,-3.903l-3.059,3.903l-1.634,2.087l-0.712,0.908l-0.703,0.896c0.106,0.843 0.255,1.685 0.449,2.507c0.266,1.131 0.595,2.131 0.966,2.979Z" style="fill:url(#_Linear11);"/><path id="Polygon5" serif:id="Polygon" d="M84.874,98.525l0,-2.085l-0.817,1.042l0.817,1.043Z" style="fill:#2a6c43;fill-rule:nonzero;"/></g></g></g></g><defs><linearGradient id="_Linear1" x1="0" y1="0" x2="1" y2="0" gradientUnits="userSpaceOnUse" gradientTransform="matrix(-120.805,69.0544,-69.0544,-120.805,615769,-425337)"><stop offset="0" style="stop-color:#3c9d60;stop-opacity:1"/><stop offset="0.03" style="stop-color:#3c9d60;stop-opacity:1"/><stop offset="0.99" style="stop-color:#01303b;stop-opacity:1"/><stop offset="1" style="stop-color:#01303b;stop-opacity:1"/></linearGradient><linearGradient id="_Linear2" x1="0" y1="0" x2="1" y2="0" gradientUnits="userSpaceOnUse" gradientTransform="matrix(7.68547e-15,125.513,-125.513,7.68547e-15,615664,-212320)"><stop offset="0" style="stop-color:#13bcff;stop-opacity:1"/><stop offset="0.99" style="stop-color:#0091ca;stop-opacity:1"/><stop offset="1" style="stop-color:#0091ca;stop-opacity:1"/></linearGradient><linearGradient id="_Linear3" x1="0" y1="0" x2="1" y2="0" gradientUnits="userSpaceOnUse" gradientTransform="matrix(42.62,23.8764,-23.8764,42.62,307221,-318750)"><stop offset="0" style="stop-color:#115a91;stop-opacity:1"/><stop offset="0.01" style="stop-color:#115a91;stop-opacity:1"/><stop offset="0.99" style="stop-color:#053d5e;stop-opacity:1"/><stop offset="1" style="stop-color:#053d5e;stop-opacity:1"/></linearGradient><linearGradient id="_Linear4" x1="0" y1="0" x2="1" y2="0" gradientUnits="userSpaceOnUse" gradientTransform="matrix(34.4765,44.9911,-44.9911,34.4765,306006,-211293)"><stop offset="0" style="stop-color:#1d75bc;stop-opacity:1"/><stop offset="1" style="stop-color:#5ca0d2;stop-opacity:1"/></linearGradient><linearGradient id="_Linear5" x1="0" y1="0" x2="1" y2="0" gradientUnits="userSpaceOnUse" gradientTransform="matrix(-133.149,200.077,-200.077,-133.149,306938,-224320)"><stop offset="0" style="stop-color:#3ab54a;stop-opacity:1"/><stop offset="0" style="stop-color:#3ab54a;stop-opacity:1"/><stop offset="0.59" style="stop-color:#3dc84f;stop-opacity:1"/><stop offset="1" style="stop-color:#3dc84f;stop-opacity:1"/></linearGradient><linearGradient id="_Linear6" x1="0" y1="0" x2="1" y2="0" gradientUnits="userSpaceOnUse" gradientTransform="matrix(-29.0943,83.9358,-83.9358,-29.0943,433192,-149242)"><stop offset="0" style="stop-color:#c1c1c1;stop-opacity:1"/><stop offset="0.98" style="stop-color:#6f6f6f;stop-opacity:1"/><stop offset="1" style="stop-color:#6f6f6f;stop-opacity:1"/></linearGradient><linearGradient id="_Linear7" x1="0" y1="0" x2="1" y2="0" gradientUnits="userSpaceOnUse" gradientTransform="matrix(-6.79806,8.58868,-8.58868,-6.79806,33596.6,-52208.4)"><stop offset="0" style="stop-color:#3c9d60;stop-opacity:1"/><stop offset="0.03" style="stop-color:#3c9d60;stop-opacity:1"/><stop offset="0.99" style="stop-color:#01303b;stop-opacity:1"/><stop offset="1" style="stop-color:#01303b;stop-opacity:1"/></linearGradient><linearGradient id="_Linear8" x1="0" y1="0" x2="1" y2="0" gradientUnits="userSpaceOnUse" gradientTransform="matrix(9.55884e-16,15.6108,-15.6108,9.55884e-16,33590.7,-25714.2)"><stop offset="0" style="stop-color:#13bcff;stop-opacity:1"/><stop offset="0.99" style="stop-color:#0091ca;stop-opacity:1"/><stop offset="1" style="stop-color:#0091ca;stop-opacity:1"/></linearGradient><linearGradient id="_Linear9" x1="0" y1="0" x2="1" y2="0" gradientUnits="userSpaceOnUse" gradientTransform="matrix(2.39827,2.96963,-2.96963,2.39827,16233.2,-38951.4)"><stop offset="0" style="stop-color:#115a91;stop-opacity:1"/><stop offset="0.01" style="stop-color:#115a91;stop-opacity:1"/><stop offset="0.99" style="stop-color:#053d5e;stop-opacity:1"/><stop offset="1" style="stop-color:#053d5e;stop-opacity:1"/></linearGradient><linearGradient id="_Linear10" x1="0" y1="0" x2="1" y2="0" gradientUnits="userSpaceOnUse" gradientTransform="matrix(1.94008,5.59576,-5.59576,1.94008,16165.4,-25586.4)"><stop offset="0" style="stop-color:#1d75bc;stop-opacity:1"/><stop offset="1" style="stop-color:#5ca0d2;stop-opacity:1"/></linearGradient><linearGradient id="_Linear11" x1="0" y1="0" x2="1" y2="0" gradientUnits="userSpaceOnUse" gradientTransform="matrix(-7.49273,24.885,-24.885,-7.49273,16218,-27207)"><stop offset="0" style="stop-color:#3ab54a;stop-opacity:1"/><stop offset="0" style="stop-color:#3ab54a;stop-opacity:1"/><stop offset="0.59" style="stop-color:#3dc84f;stop-opacity:1"/><stop offset="1" style="stop-color:#3dc84f;stop-opacity:1"/></linearGradient></defs></svg>