<?xml version="1.0" encoding="UTF-8" standalone="no"?><!DOCTYPE svg PUBLIC "-//W3C//DTD SVG 1.1//EN" "http://www.w3.org/Graphics/SVG/1.1/DTD/svg11.dtd"><svg width="100%" height="100%" viewBox="0 0 516 800" version="1.1" xmlns="http://www.w3.org/2000/svg" xmlns:xlink="http://www.w3.org/1999/xlink" xml:space="preserve" xmlns:serif="http://www.serif.com/" style="fill-rule:evenodd;clip-rule:evenodd;stroke-linejoin:round;stroke-miterlimit:1.41421;"><g id="AGI-LOGO-BOX" serif:id="AGI LOGO BOX"><path id="Base" d="M516.395,462.455l0,188.526l-128.947,74.448l-128.948,74.447l-57.453,-33.17l-71.495,-41.277l-78.855,-45.528l32.901,-56.986l150.35,86.805l-32.904,56.991l-0.025,0.044l-150.35,-86.805l0.028,-0.049l-50.092,-28.92l0,-148.896l0,-148.896l128.947,-74.448l128.948,-74.448l128.948,74.448l128.947,74.448l0,109.266Zm0,0l0,-34.581l-14.974,8.645l-14.974,8.645l14.974,8.646l14.974,8.645Z" style="fill:url(#_Linear1);"/><path id="Top" d="M0.605,353.189l128.947,74.448l128.948,74.448l128.948,-74.448l128.947,-74.448l-128.947,-74.448l-128.948,-74.448l-128.948,74.448l-128.947,74.448Z" style="fill:url(#_Linear2);fill-rule:nonzero;"/><g id="A"><path id="Compound-Shape" serif:id="Compound Shape" d="M200.945,767.026l57.555,33.23l0,-148.896l0,-148.896l-128.948,-74.448l-128.947,-74.448l0,297.792l49.99,28.862l33.003,-57.162l150.35,86.804l-33.003,57.162Z" style="fill:url(#_Linear3);"/><path id="Compound-Shape1" serif:id="Compound Shape" d="M60.605,685.622l-30,-17.321l-30,-17.32l0,-297.792l30,17.32l30,17.321l0,297.792Z" style="fill:#1c74bc;"/><path id="Compound-Shape2" serif:id="Compound Shape" d="M258.5,800.111l-30,-17.32l-30,-17.321l0,-297.791l30,17.32l30,17.321l0,297.791Z" style="fill:#1c74bc;"/><path id="Compound-Shape3" serif:id="Compound Shape" d="M0.605,427.637l0,-74.448l128.948,74.448l128.947,74.448l0,74.448l-128.947,-74.448l-128.948,-74.448Z" style="fill:#1c74bc;"/><path id="Compound-Shape4" serif:id="Compound Shape" d="M0.605,577.935l0,-74.448l128.947,74.448l128.948,74.448l0,74.448l-128.948,-74.448l-128.947,-74.448Z" style="fill:#1c74bc;"/><path id="Compound-Shape5" serif:id="Compound Shape" d="M257.497,501.505l-127.945,-73.868l-128.947,-74.448l0,296.025c18.94,1.498 39.187,-0.29 60,-5.186l0,-31.452l35.279,20.368c22.31,-8.743 44.788,-20.816 66.571,-36.013l-32.903,-18.996l-68.947,-39.807l0,-75.85l68.947,39.807l68.948,39.806l0,26.377c7.667,-6.901 15.172,-14.215 22.472,-21.93c13.628,-14.403 25.821,-29.443 36.525,-44.833Z" style="fill:url(#_Linear4);"/><path id="Polygon" d="M60.605,538.293l0,-75.838l65.677,37.919l-65.677,37.919Z" style="fill:#013d64;fill-rule:nonzero;"/><path id="Polygon1" serif:id="Polygon" d="M60.55,685.622l0,-73.073l63.283,36.536l-63.283,36.537Z" style="fill:#013d64;fill-rule:nonzero;"/></g><g id="G"><path id="Compound-Shape6" serif:id="Compound Shape" d="M359.871,552.594l0,74.372l-32.208,-18.595l-32.208,-18.596l0.007,-0.003l-30.547,-17.636l32.202,-55.776l62.749,36.228l0.005,-0.003l0,0.006l0.002,0.001l-0.002,0.002Z" style="fill:#2a6c43;"/><path id="Compound-Shape7" serif:id="Compound Shape" d="M258.491,799.862l30,-17.32l30,-17.321l0,-297.792l-30,17.321l-30,17.32l0,297.792Z" style="fill:#3ab54a;"/><path id="Compound-Shape8" serif:id="Compound Shape" d="M516.386,427.622l0,-74.447l-128.947,74.447l-128.948,74.448l0,74.448l128.948,-74.448l128.947,-74.448Z" style="fill:#3ab54a;"/><path id="Compound-Shape9" serif:id="Compound Shape" d="M516.387,650.966l0,-74.448l-128.948,74.448l-128.948,74.448l0,74.448l128.948,-74.448l128.948,-74.448Z" style="fill:#3ab54a;"/><path id="Compound-Shape10" serif:id="Compound Shape" d="M516.387,608.214l0,-74.448l-60,34.641l0,74.448l60,-34.641Z" style="fill:#3ab54a;"/><path id="Compound-Shape11" serif:id="Compound Shape" d="M516.377,536.658l0,-74.448l-60,34.641l0,74.448l60,-34.641Z" style="fill:#3ab54a;"/><path id="Compound-Shape12" serif:id="Compound Shape" d="M359.876,552.587l98.948,-57.127l0,74.448l-98.948,57.127l0,-74.448Z" style="fill:#3ab54a;"/><path id="Compound-Shape13" serif:id="Compound Shape" d="M383.897,653.276l3.548,-2.049l68.948,-39.807l0,-39.844l-96.51,55.72l0,-74.448l96.5,-55.715l0,-0.021l60,-34.642l0,71.562l0.01,-0.005l0,116.771c-1.503,0.86 -3.029,1.694 -4.576,2.499c-39.334,20.469 -85.382,18.957 -127.92,-0.021Zm-65.399,-46.512l0,-64.626l68.947,-39.807l128.948,-74.448l0,-74.448l-128.948,74.448l-68.947,39.807l-30,17.321l-29.616,17.098c4.47,16.081 10.75,32.141 18.911,47.824c11.228,21.577 25.085,40.648 40.705,56.831Z" style="fill:url(#_Linear5);"/><path id="Polygon2" serif:id="Polygon" d="M456.395,611.136l0,-39.765l-34.437,19.882l34.437,19.883Z" style="fill:#2a6c43;fill-rule:nonzero;"/></g><g id="Laptop"><path id="Compound-Shape14" serif:id="Compound Shape" d="M76.918,364.119l46.723,26.976l105.485,60.901l105.484,-60.901l105.484,-60.902l-105.484,-60.901l-46.723,-26.976l-102.942,59.433l-108.027,62.37Z" style="fill:url(#_Linear6);"/><path id="Compound-Shape15" serif:id="Compound Shape" d="M243.997,375.541l15.314,8.841l34.573,19.961l34.573,-19.961l34.573,-19.96l-34.573,-19.961l-15.314,-8.842l-33.74,19.48l-35.406,20.442Z" style="fill:#404040;"/><path id="Compound-Shape16" serif:id="Compound Shape" d="M182.696,406.304l-32.834,-18.956l-38.893,-22.455l89.922,-51.916l85.688,-49.472l38.893,22.454l32.834,18.957l-87.455,50.492l-88.155,50.896Z" style="fill:#404040;"/><path id="Compound-Shape17" serif:id="Compound Shape" d="M76.906,364.105l46.735,26.982l105.485,60.902l105.484,-60.902l95.304,-55.023l0.001,0l5.081,-2.933l5.087,-2.937l0,11.741l0.011,0.007l-105.484,60.901l-105.484,60.901l-105.485,-60.901l-46.735,-26.983l0,-11.755Z" style="fill:#666465;"/><path id="Compound-Shape18" serif:id="Compound Shape" d="M286.699,0.744l0,242.245l-104.895,60.561l-104.895,60.561l0,-121.122l0,-66.832l104.895,-60.561l104.895,-60.561l0,-54.291Z" style="fill:#3c4eb5;"/><path id="Compound-Shape19" serif:id="Compound Shape" d="M295.735,6.021l0,242.245l-104.895,60.561l-104.894,60.561l0,-121.122l0,-66.832l104.894,-60.561l104.895,-60.561l0,-54.291Z" style="fill:#313235;"/><path id="Compound-Shape20" serif:id="Compound Shape" d="M280.732,33.578l0,207.596l-89.892,51.899l-89.892,51.899l0,-103.798l0,-57.272l89.892,-51.899l89.892,-51.9l0,-46.525Z"/><path id="Compound-Shape21" serif:id="Compound Shape" d="M286.699,55.092l0,-0.057l-0.05,0.029l-0.007,-0.004l0,0.008l-104.838,60.528l-104.895,60.561l0,-54.291l0,242.245l9.037,-5.218l0,-110.627l0,-66.832l104.894,-60.561l95.802,-55.311l0,0.001l4.548,-2.626l4.548,-2.626l-4.548,-2.625l-4.491,-2.594Zm-200.694,314.296l0,-5.252l0,-5.251l-4.548,2.625l-4.548,2.626l9.096,5.252Z" style="fill:#666465;"/><path id="Compound-Shape22" serif:id="Compound Shape" d="M125.05,202.216l-1.592,-4.328l-5.904,7.086l-5.904,7.086l1.592,4.328l5.904,-7.086l5.904,-7.086Z" style="fill:#0f0;"/><path id="Compound-Shape23" serif:id="Compound Shape" d="M123.641,198.079l-6.696,-1.731l-6.697,-1.731l-2.033,3.079l13.394,3.462l2.032,-3.079Z" style="fill:#0f0;"/><path id="Compound-Shape24" serif:id="Compound Shape" d="M151.056,195.931l0,-5.603l-9.705,5.603l-9.705,5.603l0,5.604l9.705,-5.604l9.705,-5.603Z" style="fill:#0f0;"/><g id="AGI-LOGO-BOX1" serif:id="AGI LOGO BOX"><g opacity="0.44"><path id="Base1" serif:id="Base" d="M205.353,216.011l0,23.448l-7.256,9.259l-7.257,9.26l-3.233,-4.126l-4.023,-5.134l-4.437,-5.662l1.851,-7.088l8.461,10.796l-1.852,7.089l-0.001,0.005l-8.461,-10.796l0.002,-0.006l-2.819,-3.597l0,-18.519l0,-18.519l7.256,-9.26l7.256,-9.259l7.257,9.259l7.256,9.26l0,13.59Zm0,0l0,-4.301l-0.843,1.075l-0.843,1.075l0.843,1.075l0.843,1.076Z" style="fill:url(#_Linear7);"/><path id="Top1" serif:id="Top" d="M176.328,202.421l7.256,9.259l7.256,9.26l7.257,-9.26l7.256,-9.259l-7.256,-9.26l-7.257,-9.259l-7.256,9.259l-7.256,9.26Z" style="fill:url(#_Linear8);fill-rule:nonzero;"/><g id="A1" serif:id="A"><path id="Compound-Shape25" serif:id="Compound Shape" d="M187.602,253.892l3.238,4.133l0,-18.519l0,-18.519l-7.256,-9.26l-7.256,-9.259l0,37.038l2.813,3.589l1.857,-7.109l8.461,10.796l-1.857,7.11Z" style="fill:url(#_Linear9);"/><path id="Compound-Shape26" serif:id="Compound Shape" d="M179.704,243.767l-1.688,-2.154l-1.688,-2.154l0,-37.038l3.376,4.308l0,37.038Z" style="fill:#1c74bc;"/><path id="Compound-Shape27" serif:id="Compound Shape" d="M190.84,258.007l-1.688,-2.154l-1.688,-2.155l0,-37.038l1.688,2.155l1.688,2.154l0,37.038Z" style="fill:#1c74bc;"/><path id="Compound-Shape28" serif:id="Compound Shape" d="M176.328,211.68l0,-9.259l7.256,9.259l7.256,9.26l0,9.259l-7.256,-9.259l-7.256,-9.26Z" style="fill:#1c74bc;"/><path id="Compound-Shape29" serif:id="Compound Shape" d="M176.328,230.374l0,-9.26l7.256,9.26l7.256,9.259l0,9.259l-7.256,-9.259l-7.256,-9.259Z" style="fill:#1c74bc;"/><path id="Compound-Shape30" serif:id="Compound Shape" d="M190.784,220.868l-7.2,-9.188l-7.256,-9.259l0,36.818c1.066,0.186 2.205,-0.036 3.376,-0.645l0,-3.912l1.986,2.533c1.255,-1.087 2.52,-2.589 3.746,-4.479l-1.852,-2.363l-3.88,-4.95l0,-9.434l7.76,9.902l0,3.28c0.431,-0.858 0.854,-1.768 1.265,-2.727c0.766,-1.792 1.453,-3.662 2.055,-5.576Z" style="fill:url(#_Linear10);"/><path id="Polygon3" serif:id="Polygon" d="M179.704,225.443l0,-9.432l3.696,4.716l-3.696,4.716Z" style="fill:#013d64;fill-rule:nonzero;"/><path id="Polygon4" serif:id="Polygon" d="M179.701,243.767l0,-9.088l3.561,4.544l-3.561,4.544Z" style="fill:#013d64;fill-rule:nonzero;"/></g><g id="G1" serif:id="G"><path id="Compound-Shape31" serif:id="Compound Shape" d="M196.545,227.222l0,9.25l-1.813,-2.313l-1.812,-2.313l-1.719,-2.194l1.812,-6.937l3.531,4.506l0.001,0.001Z" style="fill:#2a6c43;"/><path id="Compound-Shape32" serif:id="Compound Shape" d="M190.84,257.976l1.688,-2.154l1.688,-2.155l0,-37.038l-1.688,2.155l-1.688,2.154l0,37.038Z" style="fill:#3ab54a;"/><path id="Compound-Shape33" serif:id="Compound Shape" d="M205.352,211.678l0,-9.259l-7.256,9.259l-7.256,9.26l0,9.259l7.256,-9.259l7.256,-9.26Z" style="fill:#3ab54a;"/><path id="Compound-Shape34" serif:id="Compound Shape" d="M205.352,239.457l0,-9.26l-7.256,9.26l-7.256,9.259l0,9.26l7.256,-9.26l7.256,-9.259Z" style="fill:#3ab54a;"/><path id="Compound-Shape35" serif:id="Compound Shape" d="M205.352,234.139l0,-9.259l-3.376,4.308l0,9.26l3.376,-4.309Z" style="fill:#3ab54a;"/><path id="Compound-Shape36" serif:id="Compound Shape" d="M205.352,225.24l0,-9.26l-3.377,4.309l0,9.259l3.377,-4.308Z" style="fill:#3ab54a;"/><path id="Compound-Shape37" serif:id="Compound Shape" d="M196.545,227.221l5.568,-7.105l0,9.259l-5.568,7.105l0,-9.259Z" style="fill:#3ab54a;"/><path id="Compound-Shape38" serif:id="Compound Shape" d="M197.897,239.744l0.199,-0.255l3.88,-4.951l0,-4.955l-5.431,6.93l0,-9.26l5.431,-6.929l0,-0.003l3.376,-4.308l0,8.9l0.001,-0.001l0,14.524c-0.085,0.107 -0.171,0.211 -0.258,0.311c-2.213,2.546 -4.805,2.358 -7.198,-0.003Zm-3.68,-5.785l0,-8.038l3.879,-4.951l7.257,-9.259l0,-9.26l-7.257,9.26l-3.879,4.951l-1.689,2.154l-1.666,2.127c0.251,2 0.605,3.997 1.064,5.948c0.632,2.683 1.412,5.055 2.291,7.068Z" style="fill:url(#_Linear11);"/><path id="Polygon5" serif:id="Polygon" d="M201.976,234.503l0,-4.946l-1.937,2.473l1.937,2.473Z" style="fill:#2a6c43;fill-rule:nonzero;"/></g></g></g></g></g><rect id="Artboard1" x="0" y="0" width="515.79" height="799.512" style="fill:none;"/><defs><linearGradient id="_Linear1" x1="0" y1="0" x2="1" y2="0" gradientUnits="userSpaceOnUse" gradientTransform="matrix(-286.622,163.838,-163.838,-286.622,1.46097e+06,-1.00915e+06)"><stop offset="0" style="stop-color:#3c9d60;stop-opacity:1"/><stop offset="0.03" style="stop-color:#3c9d60;stop-opacity:1"/><stop offset="0.99" style="stop-color:#01303b;stop-opacity:1"/><stop offset="1" style="stop-color:#01303b;stop-opacity:1"/></linearGradient><linearGradient id="_Linear2" x1="0" y1="0" x2="1" y2="0" gradientUnits="userSpaceOnUse" gradientTransform="matrix(1.82345e-14,297.792,-297.792,1.82345e-14,1.46072e+06,-503749)"><stop offset="0" style="stop-color:#13bcff;stop-opacity:1"/><stop offset="0.99" style="stop-color:#0091ca;stop-opacity:1"/><stop offset="1" style="stop-color:#0091ca;stop-opacity:1"/></linearGradient><linearGradient id="_Linear3" x1="0" y1="0" x2="1" y2="0" gradientUnits="userSpaceOnUse" gradientTransform="matrix(101.12,56.6489,-56.6489,101.12,728911,-756262)"><stop offset="0" style="stop-color:#115a91;stop-opacity:1"/><stop offset="0.01" style="stop-color:#115a91;stop-opacity:1"/><stop offset="0.99" style="stop-color:#053d5e;stop-opacity:1"/><stop offset="1" style="stop-color:#053d5e;stop-opacity:1"/></linearGradient><linearGradient id="_Linear4" x1="0" y1="0" x2="1" y2="0" gradientUnits="userSpaceOnUse" gradientTransform="matrix(81.7987,106.746,-106.746,81.7987,726030,-501312)"><stop offset="0" style="stop-color:#1d75bc;stop-opacity:1"/><stop offset="1" style="stop-color:#5ca0d2;stop-opacity:1"/></linearGradient><linearGradient id="_Linear5" x1="0" y1="0" x2="1" y2="0" gradientUnits="userSpaceOnUse" gradientTransform="matrix(-315.908,474.703,-474.703,-315.908,728240,-532221)"><stop offset="0" style="stop-color:#3ab54a;stop-opacity:1"/><stop offset="0" style="stop-color:#3ab54a;stop-opacity:1"/><stop offset="0.59" style="stop-color:#3dc84f;stop-opacity:1"/><stop offset="1" style="stop-color:#3dc84f;stop-opacity:1"/></linearGradient><linearGradient id="_Linear6" x1="0" y1="0" x2="1" y2="0" gradientUnits="userSpaceOnUse" gradientTransform="matrix(-69.0289,199.146,-199.146,-69.0289,1.02779e+06,-354089)"><stop offset="0" style="stop-color:#c1c1c1;stop-opacity:1"/><stop offset="0.98" style="stop-color:#6f6f6f;stop-opacity:1"/><stop offset="1" style="stop-color:#6f6f6f;stop-opacity:1"/></linearGradient><linearGradient id="_Linear7" x1="0" y1="0" x2="1" y2="0" gradientUnits="userSpaceOnUse" gradientTransform="matrix(-16.129,20.3775,-20.3775,-16.129,79711.8,-123869)"><stop offset="0" style="stop-color:#3c9d60;stop-opacity:1"/><stop offset="0.03" style="stop-color:#3c9d60;stop-opacity:1"/><stop offset="0.99" style="stop-color:#01303b;stop-opacity:1"/><stop offset="1" style="stop-color:#01303b;stop-opacity:1"/></linearGradient><linearGradient id="_Linear8" x1="0" y1="0" x2="1" y2="0" gradientUnits="userSpaceOnUse" gradientTransform="matrix(2.26792e-15,37.038,-37.038,2.26792e-15,79697.8,-61008.6)"><stop offset="0" style="stop-color:#13bcff;stop-opacity:1"/><stop offset="0.99" style="stop-color:#0091ca;stop-opacity:1"/><stop offset="1" style="stop-color:#0091ca;stop-opacity:1"/></linearGradient><linearGradient id="_Linear9" x1="0" y1="0" x2="1" y2="0" gradientUnits="userSpaceOnUse" gradientTransform="matrix(5.69011,7.04573,-7.04573,5.69011,38515.4,-92415.1)"><stop offset="0" style="stop-color:#115a91;stop-opacity:1"/><stop offset="0.01" style="stop-color:#115a91;stop-opacity:1"/><stop offset="0.99" style="stop-color:#053d5e;stop-opacity:1"/><stop offset="1" style="stop-color:#053d5e;stop-opacity:1"/></linearGradient><linearGradient id="_Linear10" x1="0" y1="0" x2="1" y2="0" gradientUnits="userSpaceOnUse" gradientTransform="matrix(4.60303,13.2765,-13.2765,4.60303,38354.6,-60705.4)"><stop offset="0" style="stop-color:#1d75bc;stop-opacity:1"/><stop offset="1" style="stop-color:#5ca0d2;stop-opacity:1"/></linearGradient><linearGradient id="_Linear11" x1="0" y1="0" x2="1" y2="0" gradientUnits="userSpaceOnUse" gradientTransform="matrix(-17.7772,59.0419,-59.0419,-17.7772,38479.4,-64550.5)"><stop offset="0" style="stop-color:#3ab54a;stop-opacity:1"/><stop offset="0" style="stop-color:#3ab54a;stop-opacity:1"/><stop offset="0.59" style="stop-color:#3dc84f;stop-opacity:1"/><stop offset="1" style="stop-color:#3dc84f;stop-opacity:1"/></linearGradient></defs></svg>