<?xml version="1.0" encoding="UTF-8" standalone="no"?><!DOCTYPE svg PUBLIC "-//W3C//DTD SVG 1.1//EN" "http://www.w3.org/Graphics/SVG/1.1/DTD/svg11.dtd"><svg width="100%" height="100%" viewBox="0 0 81 81" version="1.1" xmlns="http://www.w3.org/2000/svg" xmlns:xlink="http://www.w3.org/1999/xlink" xml:space="preserve" xmlns:serif="http://www.serif.com/" style="fill-rule:evenodd;clip-rule:evenodd;stroke-linejoin:round;stroke-miterlimit:1.41421;"><path d="M40.5,0c-22.218,0 -40.5,18.282 -40.5,40.5c0,22.218 18.282,40.5 40.5,40.5c22.218,0 40.5,-18.282 40.5,-40.5c0,-22.218 -18.282,-40.5 -40.5,-40.5Zm17.611,32.729c0,0.388 0,0.781 0,1.177c0,12.024 -9.144,25.857 -25.857,25.857c-4.928,0.001 -9.755,-1.413 -13.902,-4.075c0.72,0.084 1.445,0.127 2.17,0.126c4.094,-0.004 8.07,-1.386 11.283,-3.923c-3.883,-0.075 -7.31,-2.629 -8.492,-6.328c1.363,0.26 2.768,0.206 4.107,-0.159c-4.208,-0.851 -7.268,-4.572 -7.29,-8.865c0,-0.038 0,-0.076 0,-0.114c1.26,0.702 2.671,1.092 4.113,1.139c-3.967,-2.655 -5.206,-8.003 -2.81,-12.131c4.613,5.674 11.428,9.127 18.732,9.492c-0.158,-0.677 -0.238,-1.37 -0.238,-2.065c0,-4.989 4.105,-9.094 9.094,-9.094c2.509,0 4.91,1.039 6.629,2.869c2.035,-0.4 3.987,-1.144 5.771,-2.202c-0.676,2.105 -2.096,3.894 -3.993,5.031c1.802,-0.216 3.562,-0.7 5.22,-1.437c-1.22,1.825 -2.757,3.417 -4.537,4.702Z" style="fill:#fff;fill-rule:nonzero;"/></svg>