<?xml version="1.0" encoding="UTF-8" standalone="no"?><!DOCTYPE svg PUBLIC "-//W3C//DTD SVG 1.1//EN" "http://www.w3.org/Graphics/SVG/1.1/DTD/svg11.dtd"><svg width="100%" height="100%" viewBox="0 0 81 81" version="1.1" xmlns="http://www.w3.org/2000/svg" xmlns:xlink="http://www.w3.org/1999/xlink" xml:space="preserve" xmlns:serif="http://www.serif.com/" style="fill-rule:evenodd;clip-rule:evenodd;stroke-linejoin:round;stroke-miterlimit:1.41421;"><path d="M40.5,1.688c-21.263,0 -38.813,17.55 -38.813,38.812c0.001,8.1 2.363,15.525 6.751,21.938l-4.388,13.162c-0.337,0.675 0,1.35 0.338,1.687c0.675,0.338 1.35,0.675 2.025,0.338l13.5,-4.388c6.075,4.05 13.5,6.076 20.587,6.076c21.263,0 38.813,-17.55 38.813,-38.813c-0.001,-21.262 -17.551,-38.812 -38.813,-38.812Zm23.287,54.675c-1.012,3.037 -5.062,5.737 -8.437,6.412c-0.675,0 -1.35,0.338 -2.363,0.338c-2.7,0 -6.075,-1.013 -11.475,-3.038c-6.75,-2.7 -13.5,-8.775 -18.9,-16.537l-0.337,-0.338c-2.025,-2.7 -5.063,-7.425 -5.063,-12.487c0,-5.738 3.038,-8.775 4.05,-10.125c1.351,-1.35 3.038,-2.025 5.063,-2.025l1.35,0c1.687,0 2.7,0.675 3.712,2.7l0.675,1.35c1.013,2.362 2.363,6.075 2.7,6.75c0.675,1.35 0.675,2.362 0,3.375c-0.337,0.675 -0.675,1.35 -1.35,2.025c-0.337,0.337 -0.675,0.675 -0.675,1.012c-0.337,0.338 -0.675,0.675 -1.012,1.013l0,0.337c1.013,1.688 3.038,4.725 5.737,7.088c3.713,3.375 6.413,4.387 7.763,5.062l0.337,0c0.338,0 0.675,0.338 0.675,0c0.675,-0.675 1.35,-2.025 2.363,-3.037l0.337,-0.338c1.013,-1.35 2.363,-1.687 3.038,-1.687c0.337,0 1.012,0 1.35,0.337c0.337,0 1.012,0.338 7.425,3.713l0.675,0.337c1.012,0.337 1.687,0.675 2.025,1.688c1.35,0.675 1.013,3.712 0.337,6.075Z" style="fill:#fff;fill-rule:nonzero;"/></svg>