<?xml version="1.0" standalone="no"?>
<!DOCTYPE svg PUBLIC "-//W3C//DTD SVG 20010904//EN"
 "http://www.w3.org/TR/2001/REC-SVG-20010904/DTD/svg10.dtd">
<svg version="1.0" xmlns="http://www.w3.org/2000/svg"
 width="700.000000pt" height="700.000000pt" viewBox="0 0 700.000000 700.000000"
 preserveAspectRatio="xMidYMid meet">
<metadata>
Created by potrace 1.11, written by Peter Selinger 2001-2013
</metadata>
<g transform="translate(0.000000,700.000000) scale(0.100000,-0.100000)"
fill="#000000" stroke="none">
<path d="M3545 5613 c-132 -77 -152 -89 -260 -150 -33 -19 -76 -43 -95 -54
-19 -12 -141 -82 -270 -156 -129 -75 -271 -157 -315 -183 -44 -26 -119 -69
-167 -96 l-88 -49 -2 -424 -3 -424 -190 -109 c-104 -60 -214 -123 -242 -140
l-53 -30 0 -942 0 -942 147 -86 c224 -129 249 -140 275 -116 7 7 33 24 58 37
25 14 104 59 175 101 l131 76 84 -49 c120 -70 162 -94 283 -162 l107 -60 0
-227 c0 -217 3 -258 20 -258 4 0 85 -45 181 -101 171 -100 173 -101 204 -86
17 8 123 68 235 134 113 66 469 272 791 458 l587 339 -1 594 0 595 -56 34
c-31 19 -73 45 -95 57 l-38 23 93 54 94 54 1 232 c0 128 -2 236 -5 241 -5 8
-437 259 -1186 690 -110 63 -202 117 -205 119 -2 2 -5 238 -5 524 l0 520 -25
19 c-14 11 -27 20 -30 20 -3 -1 -63 -35 -135 -77z"/>
</g>
</svg>
